<?xml version="1.0" standalone="no"?>
<svg viewBox="0 0 200 200" xmlns="http://www.w3.org/2000/svg">
  <path fill="#000000" d="M44.5,-76.1C58.7,-68.9,72,-59.1,79,-45.9C86.1,-32.8,86.8,-16.4,82.2,-2.7C77.6,11.1,67.7,22.2,58.3,31.3C49,40.4,40.3,47.5,30.7,57.8C21,68,10.5,81.3,-0.8,82.6C-12,83.9,-24.1,73.2,-38.2,65.6C-52.4,58,-68.7,53.6,-73.4,43.2C-78,32.7,-70.9,16.4,-70.2,0.4C-69.5,-15.6,-75.3,-31.2,-71.7,-43.3C-68,-55.4,-55,-64,-41.5,-71.7C-28,-79.3,-14,-86,0.6,-87C15.1,-88,30.3,-83.4,44.5,-76.1Z" transform="translate(100 100)" />
</svg>
